<?xml version="1.0" encoding="utf-8"?>
<!-- Generator: Adobe Illustrator 23.0.2, SVG Export Plug-In . SVG Version: 6.00 Build 0)  -->
<svg version="1.1" id="Layer_1" xmlns="http://www.w3.org/2000/svg" xmlns:xlink="http://www.w3.org/1999/xlink" x="0px" y="0px"
	 viewBox="0 0 25 25" style="enable-background:new 0 0 25 25;" xml:space="preserve">
<style type="text/css">
	.st0{fill:#086EB6;}
	.st1{fill:#FFFFFF;}
</style>
<g>
	<g>
		<rect y="0.19" class="st0" width="24.6" height="24.6"/>
	</g>
</g>
<g>
	<g>
		<path class="st1" d="M12.7,17.9h-1.7c-0.14,0-0.26-0.12-0.26-0.26c0-0.14,0.12-0.26,0.26-0.26h1.7c0.14,0,0.26,0.12,0.26,0.26
			C12.96,17.78,12.85,17.9,12.7,17.9z"/>
	</g>
</g>
<g>
	<g>
		<path class="st1" d="M18.56,16.88c-0.06,0-0.12-0.02-0.17-0.06c-0.11-0.09-0.13-0.26-0.03-0.37c0.16-0.19,0.29-0.4,0.38-0.63
			c0.05-0.13,0.21-0.2,0.34-0.14c0.13,0.05,0.2,0.21,0.14,0.34c-0.11,0.28-0.27,0.54-0.46,0.77C18.71,16.85,18.64,16.88,18.56,16.88
			z"/>
	</g>
</g>
<g>
	<g>
		<path class="st1" d="M11.01,17.9H9.11c-1.77,0-3.16-1.33-3.16-3.03c0-1.07,0.54-1.94,1.53-2.48c-0.01-0.06-0.02-0.12-0.02-0.19
			c0.02-0.96,0.4-1.85,1.08-2.52c0.68-0.67,1.59-1.04,2.55-1.04c1.08,0,2.11,0.49,2.81,1.31c0.4-0.2,0.82-0.3,1.29-0.3
			c0.74,0,1.44,0.29,1.98,0.81c0.54,0.53,0.83,1.23,0.83,1.97v0.03c0.94,0.52,1.45,1.38,1.45,2.42c0,0.4-0.07,0.79-0.22,1.15
			c-0.05,0.13-0.21,0.2-0.34,0.14c-0.13-0.05-0.2-0.21-0.14-0.34c0.12-0.3,0.18-0.62,0.18-0.95c0-0.9-0.45-1.61-1.3-2.03l-0.14-0.07
			v-0.35c0-1.22-1.05-2.26-2.29-2.26c-0.45,0-0.85,0.11-1.22,0.34l-0.2,0.13l-0.14-0.19c-0.59-0.8-1.54-1.28-2.53-1.28
			c-0.83,0-1.6,0.32-2.19,0.89C8.33,10.61,8,11.37,7.99,12.19c0,0.04,0.01,0.08,0.01,0.13c0.01,0.06,0.02,0.13,0.02,0.21v0.16
			l-0.15,0.07c-0.9,0.44-1.4,1.18-1.4,2.1c0,1.41,1.16,2.51,2.64,2.51h1.89c0.14,0,0.26,0.12,0.26,0.26
			C11.27,17.78,11.15,17.9,11.01,17.9z"/>
	</g>
</g>
<g>
	<g>
		<g>
			<path class="st1" d="M17.56,17.06l-1.09-1.32c-0.31-0.65-1.03-0.99-1.73-0.81c0,0-0.66-1.06-0.81-0.99
				c-0.15,0.07,0.26,1.25,0.26,1.25c-0.57,0.43-0.76,1.21-0.45,1.86l0.34,1.68c0.07,0.33,0.39,0.54,0.71,0.47
				c0.05-0.01,0.1-0.03,0.14-0.05l2.42-1.15c0.3-0.14,0.43-0.5,0.28-0.81C17.62,17.14,17.59,17.1,17.56,17.06z M14.58,15.3
				c0.6-0.29,1.32-0.03,1.61,0.57l-2.18,1.04C13.73,16.31,13.98,15.59,14.58,15.3z M17.39,17.51c-0.02,0.09-0.08,0.17-0.16,0.21
				l-0.39,0.19l-0.46-0.95c-0.04-0.08-0.13-0.11-0.2-0.07c-0.08,0.04-0.11,0.13-0.07,0.2l0.46,0.95l-0.41,0.2l-0.46-0.95
				c-0.04-0.08-0.13-0.11-0.2-0.07s-0.11,0.13-0.07,0.2l0.46,0.95l-0.41,0.2l-0.46-0.95c-0.04-0.08-0.13-0.11-0.2-0.07
				c-0.08,0.04-0.11,0.13-0.07,0.2l0.46,0.95l-0.39,0.19c-0.15,0.07-0.33,0.01-0.4-0.14c-0.01-0.02-0.02-0.05-0.02-0.07l-0.29-1.45
				l2.3-1.1l0.94,1.14C17.39,17.32,17.41,17.42,17.39,17.51z"/>
		</g>
	</g>
</g>
<g>
	<g>
		<path class="st1" d="M14.47,15.34c-0.1,0-0.19-0.05-0.24-0.15l-1.31-2.72c-0.06-0.13-0.01-0.29,0.12-0.35
			c0.13-0.06,0.29-0.01,0.35,0.12l1.31,2.72c0.06,0.13,0.01,0.29-0.12,0.35C14.54,15.33,14.5,15.34,14.47,15.34z"/>
	</g>
</g>
<g>
	<g>
		<path class="st1" d="M20.17,10.94l0.23-0.42c0.02-0.03,0.05-0.03,0.06,0l0.23,0.42l0.02,0.02l0.42,0.23
			c0.03,0.02,0.03,0.05,0,0.06l-0.42,0.23l-0.02,0.02l-0.23,0.42c-0.02,0.03-0.05,0.03-0.06,0l-0.23-0.42l-0.02-0.02l-0.42-0.23
			c-0.03-0.02-0.03-0.05,0-0.06L20.17,10.94C20.15,10.94,20.15,10.94,20.17,10.94z"/>
	</g>
</g>
<g>
	<g>
		<path class="st1" d="M4.27,11.75l0.2-0.36c0.01-0.03,0.04-0.03,0.05,0l0.2,0.36l0.01,0.01l0.36,0.2c0.03,0.01,0.03,0.04,0,0.05
			l-0.36,0.2l-0.01,0.01l-0.2,0.36c-0.01,0.03-0.04,0.03-0.05,0l-0.2-0.36l-0.01-0.01l-0.36-0.2c-0.03-0.01-0.03-0.04,0-0.05
			L4.27,11.75L4.27,11.75z"/>
	</g>
</g>
<g>
	<g>
		<path class="st1" d="M6.16,9.3l0.15-0.27c0.01-0.01,0.04-0.01,0.05,0L6.51,9.3c0,0,0,0.01,0.01,0.01l0.27,0.15
			c0.01,0.01,0.01,0.04,0,0.05L6.52,9.66c0,0-0.01,0-0.01,0.01L6.36,9.95c-0.01,0.01-0.04,0.01-0.05,0L6.16,9.68
			c0,0,0-0.01-0.01-0.01L5.87,9.52c-0.01-0.01-0.01-0.04,0-0.05L6.16,9.3L6.16,9.3z"/>
	</g>
</g>
</svg>
